<svg width="28" height="29" viewBox="0 0 28 29" fill="none" xmlns="http://www.w3.org/2000/svg">
<path d="M17.5 6.33334L24.85 13.6833C25.111 13.9435 25.3182 14.2526 25.4595 14.5929C25.6008 14.9333 25.6735 15.2982 25.6735 15.6667C25.6735 16.0352 25.6008 16.4001 25.4595 16.7404C25.3182 17.0808 25.111 17.3899 24.85 17.65L19.8333 22.6667" stroke="black" stroke-width="2" stroke-linecap="round" stroke-linejoin="round"/>
<path d="M11.1837 7.01701C10.7462 6.57939 10.1528 6.33348 9.53401 6.33334H3.50001C3.19059 6.33334 2.89384 6.45626 2.67505 6.67505C2.45626 6.89384 2.33334 7.19059 2.33334 7.50001V13.534C2.33348 14.1528 2.57939 14.7462 3.01701 15.1837L9.67168 21.8383C10.2019 22.3653 10.9191 22.661 11.6667 22.661C12.4142 22.661 13.1314 22.3653 13.6617 21.8383L17.8383 17.6617C18.3653 17.1314 18.661 16.4142 18.661 15.6667C18.661 14.9191 18.3653 14.2019 17.8383 13.6717L11.1837 7.01701Z" stroke="black" stroke-width="2" stroke-linecap="round" stroke-linejoin="round"/>
<path d="M7.58333 12.1667C7.9055 12.1667 8.16667 11.9055 8.16667 11.5833C8.16667 11.2612 7.9055 11 7.58333 11C7.26117 11 7 11.2612 7 11.5833C7 11.9055 7.26117 12.1667 7.58333 12.1667Z" fill="black" stroke="black" stroke-width="2" stroke-linecap="round" stroke-linejoin="round"/>
</svg>
