<svg width="18" height="19" viewBox="0 0 18 19" fill="none" xmlns="http://www.w3.org/2000/svg">
<path d="M9 16.2051C10.125 16.2051 11.0625 17.0001 12 17.0001C14.25 17.0001 16.5 11.0001 16.5 7.83506C16.4744 6.8636 16.0659 5.94163 15.3635 5.27009C14.661 4.59856 13.7216 4.23191 12.75 4.25006C11.085 4.25006 9.75 5.33006 9 5.75006C8.25 5.33006 6.915 4.25006 5.25 4.25006C4.27781 4.22992 3.33727 4.59592 2.6344 5.26787C1.93152 5.93982 1.52361 6.86295 1.5 7.83506C1.5 11.0001 3.75 17.0001 6 17.0001C6.9375 17.0001 7.875 16.2051 9 16.2051Z" stroke="#030712" stroke-width="1.2" stroke-linecap="round" stroke-linejoin="round"/>
<path d="M7.5 2C8.25 2.375 9 3.5 9 5.75" stroke="#030712" stroke-width="1.2" stroke-linecap="round" stroke-linejoin="round"/>
</svg>
