<svg width="68" height="68" viewBox="0 0 68 68" fill="none" xmlns="http://www.w3.org/2000/svg">
<path fill-rule="evenodd" clip-rule="evenodd" d="M23.7333 50.6466L30.0492 58.8551C30.6226 59.6001 30.522 60.6549 29.8257 61.2866L27.6537 63.2578C27.2657 63.6097 26.7989 63.7663 26.2772 63.7192C25.7557 63.672 25.326 63.4331 25.0058 63.0186L18.0035 53.9545L23.7333 50.6466ZM58.38 29.5801H64.8125C65.8414 29.5801 66.674 28.7398 66.6719 27.7123C66.6697 26.6834 65.8307 25.8519 64.8032 25.8519H58.3707C57.3418 25.8519 56.5092 26.6923 56.5113 27.7197C56.5133 28.7489 57.3523 29.5801 58.38 29.5801ZM50.7447 12.6436L53.961 7.07293C54.4749 6.18295 54.1745 5.04076 53.2844 4.52439C52.3956 4.00881 51.2515 4.30963 50.7371 5.20067L47.5208 10.7714C47.007 11.6613 47.3074 12.8035 48.1975 13.3199C49.0863 13.8355 50.2302 13.5347 50.7447 12.6436ZM58.187 19.3164L63.468 16.2674C64.3645 15.7498 64.6716 14.6038 64.154 13.7072C63.6364 12.8107 62.4904 12.5036 61.5938 13.0212L56.3129 16.0703C55.4164 16.5879 55.1093 17.7339 55.6269 18.6305C56.1445 19.5269 57.2905 19.8339 58.187 19.3164ZM49.8812 27.7059L56.1101 38.4948C57.2796 40.5203 56.579 43.1344 54.5535 44.304C52.6633 45.3953 50.2607 44.8581 48.9977 43.1354H48.9974C42.1026 42.0866 33.1213 43.2132 24.1906 46.6946L15.6048 31.8237C23.088 25.8367 28.5713 18.66 31.1105 12.1646L31.1107 12.1643C30.2187 10.2003 30.9514 7.82292 32.8563 6.7231C34.882 5.55355 37.496 6.25414 38.6656 8.27966L44.8945 19.0686C45.0742 18.9297 45.263 18.803 45.4597 18.6895C47.8665 17.2999 50.9443 18.1245 52.334 20.5315C53.7236 22.9384 52.8989 26.0162 50.492 27.4059C50.2953 27.5195 50.0913 27.6197 49.8812 27.7059ZM22.0317 48.2678L13.0351 32.6854L5.88305 36.8147C1.53716 39.3238 0.0345204 44.9323 2.54348 49.2781L2.54361 49.2782C5.05271 53.624 10.6611 55.1267 15.007 52.6178L22.1591 48.4885L22.0317 48.2678Z" fill="white"/>
</svg>
