<svg width="20" height="21" viewBox="0 0 20 21" fill="none" xmlns="http://www.w3.org/2000/svg">
<path d="M17.5751 6.01659C16.8668 5.23326 15.6834 4.84159 13.9668 4.84159H13.7668V4.80826C13.7668 3.40826 13.7668 1.67493 10.6334 1.67493H9.36678C6.23345 1.67493 6.23345 3.41659 6.23345 4.80826V4.84993H6.03345C4.30845 4.84993 3.13345 5.24159 2.42511 6.02493C1.60011 6.94159 1.62511 8.17493 1.70845 9.01659L1.71678 9.07493L1.77757 9.71321C1.79183 9.86298 1.87258 9.99836 1.99858 10.0806C2.20063 10.2124 2.51037 10.4112 2.70011 10.5166C2.81678 10.5916 2.94178 10.6583 3.06678 10.7249C4.49178 11.5083 6.05845 12.0333 7.65011 12.2916C7.72511 13.0749 8.06678 13.9916 9.89178 13.9916C11.7168 13.9916 12.0751 13.0833 12.1334 12.2749C13.8334 11.9999 15.4751 11.4083 16.9584 10.5416C17.0084 10.5166 17.0418 10.4916 17.0834 10.4666C17.4036 10.2856 17.7355 10.0639 18.0401 9.84525C18.1533 9.76398 18.2255 9.63784 18.2409 9.49933L18.2501 9.41659L18.2918 9.02493C18.3001 8.97493 18.3001 8.93326 18.3084 8.87493C18.3751 8.03326 18.3584 6.88326 17.5751 6.01659ZM10.9084 11.7249C10.9084 12.6083 10.9084 12.7416 9.88344 12.7416C8.85845 12.7416 8.85845 12.5833 8.85845 11.7333V10.6833H10.9084V11.7249ZM7.42511 4.84159V4.80826C7.42511 3.39159 7.42511 2.86659 9.36678 2.86659H10.6334C12.5751 2.86659 12.5751 3.39993 12.5751 4.80826V4.84993H7.42511V4.84159Z" fill="#030712"/>
<path d="M17.2597 11.709C17.6137 11.5417 18.0209 11.8223 17.9855 12.2123L17.7 15.3583C17.525 17.0249 16.8416 18.7249 13.175 18.7249H6.82495C3.15828 18.7249 2.47495 17.0249 2.29995 15.3666L2.02924 12.3888C1.9942 12.0033 2.39252 11.7233 2.74555 11.8819C3.70476 12.313 5.31676 13.0064 6.35274 13.2854C6.51675 13.3296 6.6499 13.4476 6.7243 13.6003C7.23851 14.6556 8.32769 15.2166 9.89162 15.2166C11.4401 15.2166 12.5426 14.6339 13.0588 13.5755C13.1333 13.4227 13.2664 13.3048 13.4304 13.2603C14.5322 12.9618 16.2536 12.1845 17.2597 11.709Z" fill="#030712"/>
</svg>
