<svg width="20" height="21" viewBox="0 0 20 21" fill="none" xmlns="http://www.w3.org/2000/svg">
<path d="M4.16675 6.86664C2.78341 6.86664 1.66675 7.9833 1.66675 9.36664V16.0333C1.66675 17.4166 2.78341 18.5333 4.16675 18.5333H5.41675C6.33341 18.5333 7.08341 17.7833 7.08341 16.8666V8.5333C7.08341 7.61664 6.33341 6.86664 5.41675 6.86664H4.16675ZM5.00008 14.3666C5.00008 14.7083 4.71675 14.9916 4.37508 14.9916C4.03341 14.9916 3.75008 14.7083 3.75008 14.3666V11.0333C3.75008 10.6916 4.03341 10.4083 4.37508 10.4083C4.71675 10.4083 5.00008 10.6916 5.00008 11.0333V14.3666Z" fill="#292D32"/>
<path d="M15.8333 1.86664H10.8333C9.44992 1.86664 8.33325 2.9833 8.33325 4.36664V16.0333C8.33325 17.4166 9.44992 18.5333 10.8333 18.5333H11.2499C11.4833 18.5333 11.6666 18.35 11.6666 18.1166V15.2C11.6666 14.7416 12.0416 14.3666 12.4999 14.3666H14.1666C14.6249 14.3666 14.9999 14.7416 14.9999 15.2V18.1166C14.9999 18.35 15.1833 18.5333 15.4166 18.5333H15.8333C17.2166 18.5333 18.3333 17.4166 18.3333 16.0333V4.36664C18.3333 2.9833 17.2166 1.86664 15.8333 1.86664ZM12.2916 11.0333C12.2916 11.375 12.0083 11.6583 11.6666 11.6583C11.3249 11.6583 11.0416 11.375 11.0416 11.0333V6.86664C11.0416 6.52497 11.3249 6.24164 11.6666 6.24164C12.0083 6.24164 12.2916 6.52497 12.2916 6.86664V11.0333ZM15.6249 11.0333C15.6249 11.375 15.3416 11.6583 14.9999 11.6583C14.6583 11.6583 14.3749 11.375 14.3749 11.0333V6.86664C14.3749 6.52497 14.6583 6.24164 14.9999 6.24164C15.3416 6.24164 15.6249 6.52497 15.6249 6.86664V11.0333Z" fill="#292D32"/>
</svg>
