<svg width="18" height="18" viewBox="0 0 18 18" fill="none" xmlns="http://www.w3.org/2000/svg">
<g clip-path="url(#clip0_0_633)">
<path d="M9.62247 1.63502C9.42705 1.54589 9.21476 1.49976 8.99997 1.49976C8.78518 1.49976 8.57289 1.54589 8.37747 1.63502L1.94997 4.56002C1.81689 4.61871 1.70373 4.71482 1.62429 4.83667C1.54486 4.95851 1.50256 5.10082 1.50256 5.24627C1.50256 5.39173 1.54486 5.53404 1.62429 5.65588C1.70373 5.77773 1.81689 5.87384 1.94997 5.93252L8.38497 8.86502C8.58039 8.95416 8.79268 9.00029 9.00747 9.00029C9.22226 9.00029 9.43455 8.95416 9.62997 8.86502L16.065 5.94002C16.1981 5.88134 16.3112 5.78523 16.3907 5.66338C16.4701 5.54154 16.5124 5.39923 16.5124 5.25377C16.5124 5.10832 16.4701 4.96601 16.3907 4.84417C16.3112 4.72232 16.1981 4.62621 16.065 4.56752L9.62247 1.63502Z" stroke="#5E1EE5" stroke-width="1.2" stroke-linecap="round" stroke-linejoin="round"/>
<path d="M4.55997 7.125L1.93497 8.325C1.80612 8.38557 1.69718 8.48156 1.62086 8.60175C1.54455 8.72195 1.50403 8.86138 1.50403 9.00375C1.50403 9.14612 1.54455 9.28556 1.62086 9.40575C1.69718 9.52594 1.80612 9.62193 1.93497 9.6825L8.38497 12.615C8.57937 12.703 8.79032 12.7486 9.00372 12.7486C9.21712 12.7486 9.42807 12.703 9.62247 12.615L16.0575 9.69C16.1906 9.63132 16.3037 9.5352 16.3831 9.41336C16.4626 9.29151 16.5049 9.1492 16.5049 9.00375C16.5049 8.8583 16.4626 8.71599 16.3831 8.59414C16.3037 8.4723 16.1906 8.37618 16.0575 8.3175L13.4325 7.125" stroke="#5E1EE5" stroke-width="1.2" stroke-linecap="round" stroke-linejoin="round"/>
<path d="M4.55997 10.875L1.93497 12.075C1.80612 12.1356 1.69718 12.2316 1.62086 12.3518C1.54455 12.4719 1.50403 12.6114 1.50403 12.7537C1.50403 12.8961 1.54455 13.0356 1.62086 13.1557C1.69718 13.2759 1.80612 13.3719 1.93497 13.4325L8.38497 16.365C8.57937 16.453 8.79032 16.4986 9.00372 16.4986C9.21712 16.4986 9.42807 16.453 9.62247 16.365L16.0575 13.44C16.1906 13.3813 16.3037 13.2852 16.3831 13.1634C16.4626 13.0415 16.5049 12.8992 16.5049 12.7537C16.5049 12.6083 16.4626 12.466 16.3831 12.3441C16.3037 12.2223 16.1906 12.1262 16.0575 12.0675L13.4325 10.875" stroke="#5E1EE5" stroke-width="1.2" stroke-linecap="round" stroke-linejoin="round"/>
</g>
<defs>
<clipPath id="clip0_0_633">
<rect width="18" height="18" fill="white"/>
</clipPath>
</defs>
</svg>
