<svg width="12" height="8" viewBox="0 0 12 8" fill="none" xmlns="http://www.w3.org/2000/svg">
<path d="M1.98852 1.31235L1.98855 1.31231L1.99228 1.3159L6.04983 5.21992L10.121 1.32382C10.2309 1.19798 10.379 1.09742 10.5656 1.09742C10.7477 1.09742 10.9005 1.1938 11.021 1.31207C11.1481 1.42212 11.2501 1.57107 11.2501 1.75903C11.2501 1.9448 11.1498 2.10011 11.0282 2.22164L11.0273 2.22254L6.50055 6.7036C6.50039 6.70375 6.50024 6.7039 6.50008 6.70406C6.38392 6.82005 6.23635 6.90259 6.0608 6.90259C5.88966 6.90259 5.73905 6.82393 5.61347 6.71767L5.60602 6.71136L5.59908 6.70449L1.07139 2.22254L1.07139 2.22254L1.07049 2.22164C0.948959 2.10011 0.848633 1.9448 0.848633 1.75903C0.848633 1.57102 0.950698 1.42205 1.07786 1.31199C1.19783 1.19457 1.34858 1.10885 1.52739 1.10885C1.70747 1.10885 1.8624 1.19594 1.98852 1.31235Z" fill="#030712" stroke="#030712" stroke-width="0.5"/>
</svg>
