<svg width="18" height="18" viewBox="0 0 18 18" fill="none" xmlns="http://www.w3.org/2000/svg">
<path d="M5.925 15C7.35643 15.7343 9.00306 15.9332 10.5682 15.5609C12.1333 15.1885 13.5139 14.2694 14.4613 12.9692C15.4087 11.6689 15.8606 10.0731 15.7354 8.46916C15.6103 6.86524 14.9164 5.35876 13.7789 4.22118C12.6413 3.0836 11.1348 2.38972 9.53088 2.2646C7.92697 2.13947 6.3311 2.59132 5.03086 3.53872C3.73063 4.48612 2.81152 5.86677 2.43917 7.43187C2.06682 8.99697 2.26571 10.6436 3 12.075L1.5 16.5L5.925 15Z" stroke="#030712" stroke-width="1.5" stroke-linecap="round" stroke-linejoin="round"/>
<path d="M6.8175 6.74994C6.99383 6.24869 7.34187 5.82602 7.79997 5.55679C8.25807 5.28756 8.79668 5.18914 9.32039 5.27897C9.8441 5.3688 10.3191 5.64108 10.6613 6.04758C11.0035 6.45409 11.1908 6.96858 11.19 7.49994C11.19 8.99994 8.94 9.74994 8.94 9.74994" stroke="#030712" stroke-width="1.5" stroke-linecap="round" stroke-linejoin="round"/>
<path d="M9 12.75H9.00583" stroke="#030712" stroke-width="1.5" stroke-linecap="round" stroke-linejoin="round"/>
</svg>
