<svg width="18" height="18" viewBox="0 0 18 18" fill="none" xmlns="http://www.w3.org/2000/svg">
<g clip-path="url(#clip0_0_790)">
<path d="M8.25 1.5C7.85217 1.5 7.47064 1.65804 7.18934 1.93934C6.90804 2.22064 6.75 2.60218 6.75 3V6.75H3C2.60218 6.75 2.22064 6.90804 1.93934 7.18934C1.65804 7.47064 1.5 7.85217 1.5 8.25V9.75C1.5 10.575 2.175 11.25 3 11.25H6.75V15C6.75 15.825 7.425 16.5 8.25 16.5H9.75C10.1478 16.5 10.5294 16.342 10.8107 16.0607C11.092 15.7794 11.25 15.3978 11.25 15V11.25H15C15.3978 11.25 15.7794 11.092 16.0607 10.8107C16.342 10.5294 16.5 10.1478 16.5 9.75V8.25C16.5 7.85217 16.342 7.47064 16.0607 7.18934C15.7794 6.90804 15.3978 6.75 15 6.75H11.25V3C11.25 2.60218 11.092 2.22064 10.8107 1.93934C10.5294 1.65804 10.1478 1.5 9.75 1.5H8.25Z" stroke="#030712" stroke-width="1.2" stroke-linecap="round" stroke-linejoin="round"/>
</g>
<defs>
<clipPath id="clip0_0_790">
<rect width="18" height="18" fill="white"/>
</clipPath>
</defs>
</svg>
