<svg width="18" height="19" viewBox="0 0 18 19" fill="none" xmlns="http://www.w3.org/2000/svg">
<path d="M2.99999 11C2.85807 11.0005 2.71892 10.9607 2.59871 10.8852C2.4785 10.8098 2.38217 10.7018 2.32091 10.5737C2.25964 10.4457 2.23596 10.3029 2.25262 10.162C2.26927 10.021 2.32558 9.88772 2.41499 9.7775L9.83999 2.1275C9.89569 2.06321 9.97159 2.01977 10.0552 2.0043C10.1389 1.98883 10.2253 2.00226 10.3003 2.04238C10.3753 2.0825 10.4344 2.14692 10.468 2.22508C10.5016 2.30324 10.5076 2.39049 10.485 2.4725L9.04499 6.9875C9.00253 7.10114 8.98827 7.22339 9.00344 7.34376C9.0186 7.46412 9.06274 7.57901 9.13206 7.67857C9.20138 7.77813 9.29382 7.85939 9.40145 7.91537C9.50908 7.97135 9.62868 8.00039 9.74999 8H15C15.1419 7.99952 15.2811 8.03931 15.4013 8.11477C15.5215 8.19022 15.6178 8.29823 15.6791 8.42626C15.7403 8.55428 15.764 8.69706 15.7474 8.83801C15.7307 8.97895 15.6744 9.11228 15.585 9.2225L8.15999 16.8725C8.1043 16.9368 8.0284 16.9802 7.94476 16.9957C7.86112 17.0112 7.7747 16.9977 7.6997 16.9576C7.62469 16.9175 7.56556 16.8531 7.53199 16.7749C7.49843 16.6968 7.49244 16.6095 7.51499 16.5275L8.95499 12.0125C8.99746 11.8989 9.01172 11.7766 8.99655 11.6562C8.98139 11.5359 8.93725 11.421 8.86793 11.3214C8.7986 11.2219 8.70616 11.1406 8.59854 11.0846C8.49091 11.0286 8.37131 10.9996 8.24999 11H2.99999Z" stroke="#030712" stroke-width="1.2" stroke-linecap="round" stroke-linejoin="round"/>
</svg>
