<svg width="18" height="19" viewBox="0 0 18 19" fill="none" xmlns="http://www.w3.org/2000/svg">
<path d="M1.5 15.5C1.5 15.8978 1.65804 16.2794 1.93934 16.5607C2.22064 16.842 2.60218 17 3 17H15C15.3978 17 15.7794 16.842 16.0607 16.5607C16.342 16.2794 16.5 15.8978 16.5 15.5V6.5L11.25 10.25V6.5L6 10.25V3.5C6 3.10218 5.84196 2.72064 5.56066 2.43934C5.27936 2.15804 4.89782 2 4.5 2H3C2.60218 2 2.22064 2.15804 1.93934 2.43934C1.65804 2.72064 1.5 3.10218 1.5 3.5V15.5Z" stroke="#030712" stroke-width="1.2" stroke-linecap="round" stroke-linejoin="round"/>
<path d="M12.75 14H13.5" stroke="#030712" stroke-width="1.2" stroke-linecap="round" stroke-linejoin="round"/>
<path d="M9 14H9.75" stroke="#030712" stroke-width="1.2" stroke-linecap="round" stroke-linejoin="round"/>
<path d="M5.25 14H6" stroke="#030712" stroke-width="1.2" stroke-linecap="round" stroke-linejoin="round"/>
</svg>
