<svg width="5" height="12" viewBox="0 0 5 12" fill="none" xmlns="http://www.w3.org/2000/svg">
<path d="M6.79209 0.684987C6.73342 0.567654 6.64909 0.474154 6.53909 0.404487C6.42909 0.33482 6.30809 0.299987 6.17609 0.299987C6.04409 0.299987 5.92126 0.33482 5.80759 0.404487C5.69392 0.474154 5.60776 0.567654 5.54909 0.684987L4.17409 3.53399L1.08309 3.98499C0.958422 3.99965 0.844755 4.04915 0.742089 4.13349C0.639422 4.21782 0.569755 4.32232 0.533089 4.44699C0.496422 4.57165 0.492755 4.69815 0.522089 4.82649C0.551422 4.95482 0.613755 5.06299 0.709089 5.15099L2.94209 7.37299L2.41409 10.497C2.39209 10.629 2.40676 10.7537 2.45809 10.871C2.50942 10.9883 2.58642 11.0873 2.68909 11.168C2.79176 11.2487 2.90909 11.2927 3.04109 11.3C3.17309 11.3073 3.29776 11.2817 3.41509 11.223L6.17609 9.74899L8.93709 11.223C9.05442 11.2817 9.17725 11.3073 9.30559 11.3C9.43392 11.2927 9.55309 11.2505 9.66309 11.1735C9.77309 11.0965 9.85192 10.9975 9.89959 10.8765C9.94726 10.7555 9.96009 10.629 9.93809 10.497L9.39909 7.37299L11.6431 5.15099C11.7384 5.06299 11.8008 4.95482 11.8301 4.82649C11.8594 4.69815 11.8521 4.57165 11.8081 4.44699C11.7641 4.32232 11.6944 4.21782 11.5991 4.13349C11.5038 4.04915 11.3901 3.99965 11.2581 3.98499L8.17809 3.53399L6.79209 0.684987Z" fill="#FACC15"/>
</svg>
