<svg width="12" height="12" viewBox="0 0 12 12" fill="none" xmlns="http://www.w3.org/2000/svg">
<path d="M6.28956 1.38378C6.23089 1.26644 6.14656 1.17294 6.03656 1.10328C5.92656 1.03361 5.80556 0.998778 5.67356 0.998778C5.54156 0.998778 5.41872 1.03361 5.30506 1.10328C5.19139 1.17294 5.10522 1.26644 5.04656 1.38378L3.67156 4.23278L0.580556 4.68378C0.455889 4.69844 0.342222 4.74794 0.239556 4.83228C0.136889 4.91661 0.0672222 5.02111 0.0305556 5.14578C-0.00611111 5.27044 -0.00977778 5.39694 0.0195556 5.52528C0.0488889 5.65361 0.111222 5.76178 0.206556 5.84978L2.43956 8.07178L1.91156 11.1958C1.88956 11.3278 1.90422 11.4524 1.95556 11.5698C2.00689 11.6871 2.08389 11.7861 2.18656 11.8668C2.28922 11.9474 2.40656 11.9914 2.53856 11.9988C2.67056 12.0061 2.79522 11.9804 2.91256 11.9218L5.67356 10.4478L8.43456 11.9218C8.55189 11.9804 8.67472 12.0061 8.80306 11.9988C8.93139 11.9914 9.05056 11.9493 9.16056 11.8723C9.27056 11.7953 9.34939 11.6963 9.39706 11.5753C9.44472 11.4543 9.45756 11.3278 9.43556 11.1958L8.89656 8.07178L11.1406 5.84978C11.2359 5.76178 11.2982 5.65361 11.3276 5.52528C11.3569 5.39694 11.3496 5.27044 11.3056 5.14578C11.2616 5.02111 11.1919 4.91661 11.0966 4.83228C11.0012 4.74794 10.8876 4.69844 10.7556 4.68378L7.67556 4.23278L6.28956 1.38378Z" fill="#D1D5DB"/>
<g clip-path="url(#clip0_1_11)">
<path d="M6.28956 1.38379C6.23089 1.26645 6.14656 1.17295 6.03656 1.10329C5.92656 1.03362 5.80556 0.998787 5.67356 0.998787C5.54156 0.998787 5.41873 1.03362 5.30506 1.10329C5.19139 1.17295 5.10523 1.26645 5.04656 1.38379L3.67156 4.23278L0.580557 4.68378C0.455889 4.69845 0.342222 4.74795 0.239556 4.83228C0.136889 4.91662 0.0672219 5.02112 0.0305559 5.14578C-0.00611107 5.27045 -0.00977805 5.39695 0.0195559 5.52528C0.0488889 5.65362 0.111222 5.76178 0.206556 5.84978L2.43956 8.07178L1.91156 11.1958C1.88956 11.3278 1.90423 11.4525 1.95556 11.5698C2.00689 11.6871 2.08389 11.7861 2.18656 11.8668C2.28923 11.9475 2.40656 11.9915 2.53856 11.9988C2.67056 12.0061 2.79523 11.9805 2.91256 11.9218L5.67356 10.4478L8.43456 11.9218C8.55189 11.9805 8.67472 12.0061 8.80306 11.9988C8.93139 11.9915 9.05056 11.9493 9.16056 11.8723C9.27056 11.7953 9.34939 11.6963 9.39706 11.5753C9.44473 11.4543 9.45756 11.3278 9.43556 11.1958L8.89656 8.07178L11.1406 5.84978C11.2359 5.76178 11.2983 5.65362 11.3276 5.52528C11.3569 5.39695 11.3496 5.27045 11.3056 5.14578C11.2616 5.02112 11.1919 4.91662 11.0966 4.83228C11.0013 4.74795 10.8876 4.69845 10.7556 4.68378L7.67556 4.23278L6.28956 1.38379Z" fill="#FACC15"/>
</g>
<defs>
<clipPath id="clip0_1_11">
<rect width="5" height="12" fill="white"/>
</clipPath>
</defs>
</svg>
