<svg width="12" height="13" viewBox="0 0 12 13" fill="none" xmlns="http://www.w3.org/2000/svg">
<path d="M6.61698 2.13503C6.55831 2.01769 6.47398 1.92419 6.36398 1.85453C6.25398 1.78486 6.13298 1.75003 6.00098 1.75003C5.86898 1.75003 5.74615 1.78486 5.63248 1.85453C5.51881 1.92419 5.43265 2.01769 5.37398 2.13503L3.99898 4.98403L0.907979 5.43503C0.783312 5.44969 0.669645 5.49919 0.566979 5.58353C0.464312 5.66786 0.394645 5.77236 0.357979 5.89703C0.321312 6.02169 0.317645 6.14819 0.346979 6.27653C0.376312 6.40486 0.438645 6.51303 0.533979 6.60103L2.76698 8.82303L2.23898 11.947C2.21698 12.079 2.23165 12.2037 2.28298 12.321C2.33431 12.4384 2.41131 12.5374 2.51398 12.618C2.61665 12.6987 2.73398 12.7427 2.86598 12.75C2.99798 12.7574 3.12265 12.7317 3.23998 12.673L6.00098 11.199L8.76198 12.673C8.87931 12.7317 9.00215 12.7574 9.13048 12.75C9.25881 12.7427 9.37798 12.7005 9.48798 12.6235C9.59798 12.5465 9.67681 12.4475 9.72448 12.3265C9.77215 12.2055 9.78498 12.079 9.76298 11.947L9.22398 8.82303L11.468 6.60103C11.5633 6.51303 11.6256 6.40486 11.655 6.27653C11.6843 6.14819 11.677 6.02169 11.633 5.89703C11.589 5.77236 11.5193 5.66786 11.424 5.58353C11.3286 5.49919 11.215 5.44969 11.083 5.43503L8.00298 4.98403L6.61698 2.13503Z" fill="#D1D5DB"/>
<g clip-path="url(#clip0_1_19)">
<path d="M6.28956 2.0015C6.23089 1.88417 6.14656 1.79067 6.03656 1.721C5.92656 1.65133 5.80556 1.6165 5.67356 1.6165C5.54156 1.6165 5.41873 1.65133 5.30506 1.721C5.19139 1.79067 5.10523 1.88417 5.04656 2.0015L3.67156 4.8505L0.580557 5.3015C0.455889 5.31617 0.342222 5.36567 0.239556 5.45C0.136889 5.53434 0.0672219 5.63884 0.0305559 5.7635C-0.00611113 5.88817 -0.0097781 6.01467 0.0195559 6.143C0.0488889 6.27134 0.111222 6.3795 0.206556 6.4675L2.43956 8.6895L1.91156 11.8135C1.88956 11.9455 1.90423 12.0702 1.95556 12.1875C2.00689 12.3048 2.08389 12.4038 2.18656 12.4845C2.28923 12.5652 2.40656 12.6092 2.53856 12.6165C2.67056 12.6238 2.79523 12.5982 2.91256 12.5395L5.67356 11.0655L8.43456 12.5395C8.55189 12.5982 8.67472 12.6238 8.80306 12.6165C8.93139 12.6092 9.05056 12.567 9.16056 12.49C9.27056 12.413 9.34939 12.314 9.39706 12.193C9.44473 12.072 9.45756 11.9455 9.43556 11.8135L8.89656 8.6895L11.1406 6.4675C11.2359 6.3795 11.2983 6.27134 11.3276 6.143C11.3569 6.01467 11.3496 5.88817 11.3056 5.7635C11.2616 5.63884 11.1919 5.53434 11.0966 5.45C11.0013 5.36567 10.8876 5.31617 10.7556 5.3015L7.67556 4.8505L6.28956 2.0015Z" fill="#FACC15"/>
</g>
<defs>
<clipPath id="clip0_1_19">
<rect width="5" height="11" fill="white" transform="translate(0 0.751247)"/>
</clipPath>
</defs>
</svg>
