<svg width="14" height="14" viewBox="0 0 14 14" fill="none" xmlns="http://www.w3.org/2000/svg">
<path d="M4.95832 8.45833C5.3451 8.45833 5.71603 8.30469 5.98952 8.0312C6.26301 7.75771 6.41666 7.38677 6.41666 7C6.41666 6.195 6.12499 5.83333 5.83332 5.25C5.20799 3.99992 5.70266 2.88517 6.99999 1.75C7.29166 3.20833 8.16666 4.60833 9.33332 5.54167C10.5 6.475 11.0833 7.58333 11.0833 8.75C11.0833 9.28623 10.9777 9.81721 10.7725 10.3126C10.5673 10.808 10.2665 11.2582 9.88734 11.6374C9.50817 12.0165 9.05803 12.3173 8.56261 12.5225C8.0672 12.7277 7.53622 12.8333 6.99999 12.8333C6.46376 12.8333 5.93278 12.7277 5.43737 12.5225C4.94195 12.3173 4.49181 12.0165 4.11264 11.6374C3.73346 11.2582 3.43269 10.808 3.22748 10.3126C3.02227 9.81721 2.91666 9.28623 2.91666 8.75C2.91666 8.07742 3.16924 7.41183 3.49999 7C3.49999 7.38677 3.65364 7.75771 3.92713 8.0312C4.20062 8.30469 4.57155 8.45833 4.95832 8.45833Z" fill="#805300" stroke="#805300" stroke-width="0.5" stroke-linecap="round" stroke-linejoin="round"/>
</svg>
