<svg width="16" height="14" viewBox="0 0 16 14" fill="none" xmlns="http://www.w3.org/2000/svg">
<path d="M10.412 1.88992C9.93956 1.88992 9.4876 1.99212 9.05608 2.19653C8.62456 2.40093 8.26345 2.67574 7.97274 3.02095C7.69112 2.65757 7.33682 2.37822 6.90984 2.1829C6.48287 1.98758 6.02409 1.88992 5.53352 1.88992C4.97936 1.88992 4.46154 2.02619 3.98006 2.29873C3.51674 2.56218 3.14881 2.92102 2.87628 3.37525C2.60374 3.82948 2.46747 4.32005 2.46747 4.84696C2.46747 5.83718 2.73546 6.81378 3.27146 7.77675C3.69843 8.54894 4.29348 9.29842 5.05658 10.0252C5.60166 10.5521 6.21033 11.0381 6.88259 11.4833C7.30048 11.774 7.60936 11.9648 7.80922 12.0556C7.84556 12.0919 7.90007 12.1101 7.97274 12.1101C8.04542 12.1101 8.12264 12.0919 8.2044 12.0556C8.42243 11.9466 8.73131 11.7558 9.13103 11.4833C9.79421 11.0381 10.4029 10.5521 10.957 10.0252C11.7111 9.29842 12.3016 8.54894 12.7285 7.77675C13.2645 6.81378 13.5325 5.83718 13.5325 4.84696C13.5325 4.32005 13.3917 3.82948 13.1101 3.37525C12.8285 2.92102 12.4469 2.55991 11.9654 2.29191C11.4839 2.02392 10.9661 1.88992 10.412 1.88992ZM7.97274 11.1971C7.39133 10.8428 6.85534 10.4658 6.36477 10.0661C5.50173 9.36655 4.82038 8.64433 4.32073 7.89939C3.64847 6.90917 3.31234 5.90986 3.31234 4.90147C3.31234 4.51083 3.41454 4.14972 3.61894 3.81813C3.82335 3.48654 4.09589 3.22309 4.43656 3.02777C4.77723 2.83245 5.14289 2.73479 5.53352 2.73479C5.98776 2.73479 6.39883 2.85289 6.76676 3.08909C7.13469 3.32529 7.40495 3.64325 7.57756 4.04297C7.6139 4.13382 7.68431 4.19741 7.78878 4.23375C7.89325 4.27009 8.00227 4.27009 8.11583 4.23375C8.22938 4.19741 8.31342 4.13382 8.36792 4.04297C8.54053 3.64325 8.81307 3.32529 9.18554 3.08909C9.55801 2.85289 9.96682 2.73479 10.412 2.73479C10.8208 2.73479 11.1955 2.83245 11.5362 3.02777C11.8769 3.22309 12.1449 3.48654 12.3402 3.81813C12.5355 4.14972 12.6331 4.51083 12.6331 4.90147C12.6331 5.89169 12.297 6.88191 11.6248 7.87214C11.116 8.61707 10.4347 9.34384 9.58072 10.0524C9.07198 10.4703 8.53599 10.8519 7.97274 11.1971Z" fill="#030712"/>
</svg>
