<svg width="18" height="19" viewBox="0 0 18 19" fill="none" xmlns="http://www.w3.org/2000/svg">
<path d="M8.24998 15.5C6.93303 15.504 5.66267 15.0129 4.69087 14.1241C3.71907 13.2352 3.11681 12.0137 3.00354 10.7016C2.89026 9.3895 3.27425 8.08277 4.07935 7.04056C4.88444 5.99834 6.05183 5.29677 7.34998 5.075C11.625 4.25 12.75 3.86 14.25 2C15 3.5 15.75 5.135 15.75 8C15.75 12.125 12.165 15.5 8.24998 15.5Z" stroke="#030712" stroke-width="1.2" stroke-linecap="round" stroke-linejoin="round"/>
<path d="M1.5 16.25C1.5 14 2.8875 12.23 5.31 11.75C7.125 11.39 9 10.25 9.75 9.5" stroke="#030712" stroke-width="1.2" stroke-linecap="round" stroke-linejoin="round"/>
</svg>
