<svg width="13" height="14" viewBox="0 0 13 14" fill="none" xmlns="http://www.w3.org/2000/svg">
<path d="M8.74999 3.43002L8.16666 5.83335H11.5675C11.7486 5.83335 11.9272 5.87552 12.0892 5.95652C12.2512 6.03752 12.3922 6.15513 12.5008 6.30002C12.6095 6.44492 12.6829 6.61312 12.7153 6.79132C12.7477 6.96952 12.7382 7.15281 12.6875 7.32669L11.3283 11.9934C11.2576 12.2357 11.1103 12.4486 10.9083 12.6C10.7064 12.7515 10.4608 12.8334 10.2083 12.8334H2.33332C2.0239 12.8334 1.72716 12.7104 1.50837 12.4916C1.28957 12.2729 1.16666 11.9761 1.16666 11.6667V7.00002C1.16666 6.6906 1.28957 6.39386 1.50837 6.17506C1.72716 5.95627 2.0239 5.83335 2.33332 5.83335H3.94332C4.16037 5.83324 4.37309 5.77258 4.55755 5.65819C4.74201 5.5438 4.8909 5.38023 4.98749 5.18585L6.99999 1.16669C7.27508 1.17009 7.54584 1.23562 7.79204 1.35837C8.03825 1.48112 8.25353 1.65792 8.42181 1.87556C8.59009 2.09319 8.70701 2.34605 8.76384 2.61522C8.82067 2.8844 8.81593 3.16293 8.74999 3.43002Z" fill="#0F4880" stroke="#0F4880" stroke-width="0.5" stroke-linecap="round" stroke-linejoin="round"/>
</svg>
