<svg width="20" height="25" viewBox="0 0 20 25" fill="none" xmlns="http://www.w3.org/2000/svg">
<path d="M17.1834 9.2416C16.3084 5.3916 12.9501 3.65826 10.0001 3.65826C10.0001 3.65826 10.0001 3.65826 9.99175 3.65826C7.05008 3.65826 3.68341 5.38326 2.80841 9.23326C1.83341 13.5333 4.46675 17.1749 6.85008 19.4666C7.73341 20.3166 8.86675 20.7416 10.0001 20.7416C11.1334 20.7416 12.2667 20.3166 13.1417 19.4666C15.5251 17.1749 18.1584 13.5416 17.1834 9.2416ZM10.0001 13.4166C8.55008 13.4166 7.37508 12.2416 7.37508 10.7916C7.37508 9.3416 8.55008 8.1666 10.0001 8.1666C11.4501 8.1666 12.6251 9.3416 12.6251 10.7916C12.6251 12.2416 11.4501 13.4166 10.0001 13.4166Z" fill="#292D32"/>
</svg>
