<svg width="20" height="15" viewBox="0 0 20 15" fill="none" xmlns="http://www.w3.org/2000/svg">
<g clip-path="url(#clip0_0_41)">
<path d="M15.854 7.7579C15.854 7.7299 15.8423 7.70423 15.819 7.6809C15.7957 7.65757 15.77 7.6459 15.742 7.6459L13.404 5.3079C13.3107 5.2239 13.2033 5.1819 13.082 5.1819C12.9607 5.1819 12.8533 5.2239 12.76 5.3079C12.6667 5.3919 12.6223 5.49923 12.627 5.6299C12.6317 5.76056 12.676 5.8679 12.76 5.9519L14.342 7.5339H3.772C3.65066 7.5339 3.54333 7.5759 3.45 7.6599C3.35666 7.7439 3.31 7.85823 3.31 8.0029C3.31 8.14757 3.352 8.25957 3.436 8.3389C3.52 8.41823 3.632 8.4579 3.772 8.4579H14.398L12.816 10.0399C12.732 10.1239 12.69 10.2289 12.69 10.3549C12.69 10.4809 12.732 10.5906 12.816 10.6839C12.844 10.7119 12.886 10.7376 12.942 10.7609C12.998 10.7842 13.054 10.7959 13.11 10.7959C13.166 10.7959 13.222 10.7842 13.278 10.7609C13.334 10.7376 13.376 10.7119 13.404 10.6839L15.742 8.3459C15.7607 8.32723 15.7793 8.3039 15.798 8.2759C15.8167 8.2479 15.8353 8.2339 15.854 8.2339C15.882 8.11257 15.896 8.01923 15.896 7.9539C15.896 7.88857 15.882 7.82323 15.854 7.7579Z" fill="white"/>
</g>
<defs>
<clipPath id="clip0_0_41">
<rect width="14" height="14" fill="white" transform="matrix(1 0 0 -1 3.19 14.9399)"/>
</clipPath>
</defs>
</svg>
