<svg width="14" height="14" viewBox="0 0 14 14" fill="none" xmlns="http://www.w3.org/2000/svg">
<path d="M2.33334 8.16668C2.22295 8.16706 2.11472 8.1361 2.02123 8.07742C1.92773 8.01873 1.85281 7.93472 1.80516 7.83515C1.75751 7.73557 1.73909 7.62452 1.75205 7.5149C1.765 7.40527 1.80879 7.30157 1.87834 7.21585L7.65334 1.26585C7.69666 1.21584 7.75569 1.18205 7.82074 1.17002C7.8858 1.15799 7.95301 1.16844 8.01135 1.19964C8.06968 1.23084 8.11568 1.28095 8.14178 1.34174C8.16789 1.40253 8.17255 1.47039 8.15501 1.53418L7.03501 5.04585C7.00198 5.13424 6.99089 5.22932 7.00268 5.32293C7.01448 5.41655 7.04881 5.50591 7.10273 5.58335C7.15664 5.66078 7.22854 5.72398 7.31225 5.76752C7.39596 5.81107 7.48898 5.83365 7.58334 5.83335H11.6667C11.7771 5.83297 11.8853 5.86392 11.9788 5.92261C12.0723 5.9813 12.1472 6.06531 12.1949 6.16488C12.2425 6.26445 12.2609 6.3755 12.248 6.48513C12.235 6.59475 12.1912 6.69845 12.1217 6.78418L6.34667 12.7342C6.30335 12.7842 6.24432 12.818 6.17927 12.83C6.11421 12.842 6.047 12.8316 5.98866 12.8004C5.93033 12.7692 5.88433 12.7191 5.85823 12.6583C5.83212 12.5975 5.82746 12.5296 5.84501 12.4658L6.96501 8.95418C6.99803 8.86579 7.00912 8.77071 6.99733 8.67709C6.98553 8.58348 6.9512 8.49412 6.89729 8.41668C6.84337 8.33925 6.77147 8.27605 6.68776 8.2325C6.60405 8.18896 6.51103 8.16637 6.41667 8.16668H2.33334Z" fill="#166534" stroke="#166534" stroke-linecap="round" stroke-linejoin="round"/>
</svg>
