<svg width="12" height="7" viewBox="0 0 12 7" fill="none" xmlns="http://www.w3.org/2000/svg">
<path d="M10.1101 6.18765L10.1101 6.18769L10.1064 6.1841L6.0488 2.28008L1.9776 6.17618C1.86778 6.30203 1.71962 6.40258 1.53302 6.40258C1.35092 6.40258 1.19811 6.3062 1.07767 6.18793C0.950555 6.07788 0.84854 5.92893 0.84854 5.74097C0.84854 5.5552 0.948866 5.39989 1.0704 5.27836L1.0713 5.27746L5.59809 0.796405C5.59824 0.79625 5.5984 0.796096 5.59855 0.795941C5.71471 0.679952 5.86228 0.597413 6.03784 0.597413C6.20897 0.597413 6.35958 0.676074 6.48516 0.782335L6.49261 0.788641L6.49955 0.79551L11.0272 5.27746L11.0272 5.27746L11.0281 5.27836C11.1497 5.39989 11.25 5.5552 11.25 5.74097C11.25 5.92898 11.1479 6.07795 11.0208 6.18801C10.9008 6.30543 10.7501 6.39115 10.5712 6.39115C10.3912 6.39115 10.2362 6.30406 10.1101 6.18765Z" fill="#030712" stroke="#030712" stroke-width="0.5"/>
</svg>
