<svg width="18" height="19" viewBox="0 0 18 19" fill="none" xmlns="http://www.w3.org/2000/svg">
<path d="M8.25 5C9.07843 5 9.75 4.32843 9.75 3.5C9.75 2.67157 9.07843 2 8.25 2C7.42157 2 6.75 2.67157 6.75 3.5C6.75 4.32843 7.42157 5 8.25 5Z" stroke="#030712" stroke-width="1.2" stroke-linecap="round" stroke-linejoin="round"/>
<path d="M13.5 8C14.3284 8 15 7.32843 15 6.5C15 5.67157 14.3284 5 13.5 5C12.6716 5 12 5.67157 12 6.5C12 7.32843 12.6716 8 13.5 8Z" stroke="#030712" stroke-width="1.2" stroke-linecap="round" stroke-linejoin="round"/>
<path d="M15 14C15.8284 14 16.5 13.3284 16.5 12.5C16.5 11.6716 15.8284 11 15 11C14.1716 11 13.5 11.6716 13.5 12.5C13.5 13.3284 14.1716 14 15 14Z" stroke="#030712" stroke-width="1.2" stroke-linecap="round" stroke-linejoin="round"/>
<path d="M6.74999 8C7.24245 8 7.73009 8.097 8.18506 8.28545C8.64003 8.47391 9.05343 8.75013 9.40165 9.09835C9.74987 9.44657 10.0261 9.85997 10.2145 10.3149C10.403 10.7699 10.5 11.2575 10.5 11.75V14.375C10.4998 15.0023 10.2749 15.6089 9.86611 16.0847C9.4573 16.5606 8.89159 16.8743 8.27144 16.969C7.65129 17.0638 7.01771 16.9333 6.48547 16.6012C5.95322 16.2691 5.55751 15.7574 5.36999 15.1587C5.04999 14.1262 4.37499 13.45 3.34499 13.13C2.74663 12.9426 2.23512 12.5472 1.90302 12.0153C1.57091 11.4835 1.44016 10.8503 1.53441 10.2304C1.62866 9.61051 1.9417 9.04482 2.41687 8.63571C2.89205 8.2266 3.49797 8.0011 4.12499 8H6.74999Z" stroke="#030712" stroke-width="1.2" stroke-linecap="round" stroke-linejoin="round"/>
</svg>
