<svg width="17" height="16" viewBox="0 0 17 16" fill="none" xmlns="http://www.w3.org/2000/svg">
<path d="M13.5419 7.53601H9.39792V3.32801C9.39792 3.18935 9.34992 3.06668 9.25392 2.96001C9.15792 2.85334 9.02992 2.80001 8.86992 2.80001C8.70992 2.80001 8.58192 2.85334 8.48592 2.96001C8.38992 3.06668 8.34192 3.18935 8.34192 3.32801V7.47201H4.19792C4.05926 7.47201 3.93659 7.52001 3.82992 7.61601C3.72326 7.71201 3.66992 7.84268 3.66992 8.00801C3.66992 8.17335 3.71792 8.30135 3.81392 8.39201C3.90992 8.48268 4.03792 8.52801 4.19792 8.52801H8.34192V12.672C8.34192 12.8107 8.38992 12.9333 8.48592 13.04C8.58192 13.1467 8.71259 13.2 8.87792 13.2C9.04326 13.2 9.17126 13.152 9.26192 13.056C9.35259 12.96 9.39792 12.832 9.39792 12.672V8.52801H13.5419C13.6806 8.52801 13.8033 8.48001 13.9099 8.38401C14.0166 8.28801 14.0699 8.16001 14.0699 8.00001C14.0699 7.84001 14.0193 7.72268 13.9179 7.64801C13.8166 7.57335 13.6913 7.53601 13.5419 7.53601Z" fill="white" stroke="white"/>
</svg>
