<svg width="18" height="19" viewBox="0 0 18 19" fill="none" xmlns="http://www.w3.org/2000/svg">
<path d="M13.8524 13.3225L14.1449 15.6924C14.2199 16.3149 13.5524 16.7499 13.0199 16.4274L9.87738 14.5599C9.53238 14.5599 9.19489 14.5375 8.86489 14.4925C9.41989 13.84 9.74989 13.0149 9.74989 12.1224C9.74989 9.99244 7.90489 8.26747 5.62489 8.26747C4.75489 8.26747 3.95239 8.51495 3.28489 8.94995C3.26239 8.76245 3.25488 8.57494 3.25488 8.37994C3.25488 4.96744 6.21738 2.19995 9.87738 2.19995C13.5374 2.19995 16.4999 4.96744 16.4999 8.37994C16.4999 10.4049 15.4574 12.1975 13.8524 13.3225Z" stroke="#292D32" stroke-width="1.5" stroke-linecap="round" stroke-linejoin="round"/>
<path d="M9.75 12.1224C9.75 13.0149 9.42001 13.8399 8.86501 14.4924C8.12251 15.3924 6.945 15.9699 5.625 15.9699L3.6675 17.1324C3.3375 17.3349 2.9175 17.0574 2.9625 16.6749L3.15 15.1974C2.145 14.4999 1.5 13.3824 1.5 12.1224C1.5 10.8024 2.205 9.63994 3.285 8.94994C3.9525 8.51494 4.755 8.26746 5.625 8.26746C7.905 8.26746 9.75 9.99242 9.75 12.1224Z" stroke="#292D32" stroke-width="1.5" stroke-linecap="round" stroke-linejoin="round"/>
</svg>
