<svg width="7" height="12" viewBox="0 0 7 12" fill="none" xmlns="http://www.w3.org/2000/svg">
<path d="M0.659765 10.0608L0.659726 10.0608L0.663314 10.0571L4.56733 5.99953L0.671233 1.92833C0.545387 1.81851 0.44483 1.67035 0.44483 1.48374C0.44483 1.30165 0.541215 1.14884 0.659482 1.0284C0.769533 0.901284 0.918483 0.799269 1.10644 0.799269C1.29221 0.799269 1.44752 0.899595 1.56906 1.02113L1.56995 1.02203L6.05101 5.54882C6.05116 5.54897 6.05132 5.54913 6.05147 5.54928C6.16746 5.66544 6.25 5.81301 6.25 5.98857C6.25 6.1597 6.17134 6.31031 6.06508 6.43589L6.05877 6.44334L6.0519 6.45028L1.56995 10.978L1.56995 10.978L1.56905 10.9789C1.44752 11.1004 1.29222 11.2007 1.10644 11.2007C0.918437 11.2007 0.76946 11.0987 0.6594 10.9715C0.541984 10.8515 0.456264 10.7008 0.456264 10.522C0.456264 10.3419 0.543352 10.187 0.659765 10.0608Z" fill="#030712" stroke="#030712" stroke-width="0.5"/>
</svg>
