<svg width="12" height="12" viewBox="0 0 12 12" fill="none" xmlns="http://www.w3.org/2000/svg">
<path d="M7.47634 5.74797L4.47634 2.74797C4.39634 2.67597 4.30434 2.63997 4.20034 2.63997C4.09634 2.63997 4.00434 2.67597 3.92434 2.74797C3.84434 2.81997 3.80634 2.90997 3.81034 3.01797C3.81434 3.12597 3.85234 3.21997 3.92434 3.29997L6.67234 6.04797L3.92434 8.79597C3.85234 8.87597 3.81634 8.96997 3.81634 9.07797C3.81634 9.18597 3.85234 9.27597 3.92434 9.34797C3.94834 9.37197 3.98434 9.39397 4.03234 9.41397C4.08034 9.43397 4.12834 9.44397 4.17634 9.44397C4.22434 9.44397 4.27234 9.43397 4.32034 9.41397C4.36834 9.39397 4.40434 9.37197 4.42834 9.34797L7.42834 6.34797C7.61234 6.10797 7.62834 5.90797 7.47634 5.74797Z" fill="#9CA3AF"/>
</svg>
