<svg width="18" height="19" viewBox="0 0 18 19" fill="none" xmlns="http://www.w3.org/2000/svg">
<path d="M6.225 7.99998C6.12832 8.00525 6.03206 7.98369 5.94687 7.93767C5.86167 7.89165 5.79087 7.82297 5.74228 7.73922C5.69369 7.65546 5.66921 7.55991 5.67154 7.46311C5.67387 7.36631 5.70293 7.27204 5.7555 7.19073L8.55 2.74998C8.59391 2.6709 8.65751 2.60452 8.73462 2.55725C8.81174 2.50998 8.89975 2.48344 8.99014 2.4802C9.08053 2.47695 9.17023 2.49712 9.25053 2.53873C9.33084 2.58035 9.39903 2.642 9.4485 2.71773L12.225 7.17498C12.2797 7.25357 12.3119 7.34564 12.3181 7.44121C12.3242 7.53678 12.3041 7.63222 12.2599 7.71719C12.2158 7.80216 12.1492 7.87342 12.0674 7.92327C11.9856 7.97311 11.8918 7.99964 11.796 7.99998H6.225Z" stroke="#030712" stroke-width="1.2" stroke-linecap="round" stroke-linejoin="round"/>
<path d="M6.75 11H3C2.58579 11 2.25 11.3358 2.25 11.75V15.5C2.25 15.9142 2.58579 16.25 3 16.25H6.75C7.16421 16.25 7.5 15.9142 7.5 15.5V11.75C7.5 11.3358 7.16421 11 6.75 11Z" stroke="#030712" stroke-width="1.2" stroke-linecap="round" stroke-linejoin="round"/>
<path d="M13.125 16.25C14.5747 16.25 15.75 15.0747 15.75 13.625C15.75 12.1753 14.5747 11 13.125 11C11.6753 11 10.5 12.1753 10.5 13.625C10.5 15.0747 11.6753 16.25 13.125 16.25Z" stroke="#030712" stroke-width="1.2" stroke-linecap="round" stroke-linejoin="round"/>
</svg>
