<svg width="18" height="19" viewBox="0 0 18 19" fill="none" xmlns="http://www.w3.org/2000/svg">
<path d="M15.285 3.095L12 2C12 2.79565 11.684 3.55871 11.1213 4.12132C10.5587 4.68393 9.79568 5 9.00003 5C8.20438 5 7.44132 4.68393 6.87871 4.12132C6.3161 3.55871 6.00003 2.79565 6.00003 2L2.71503 3.095C2.37557 3.2081 2.08771 3.43881 1.90342 3.74551C1.71913 4.0522 1.65054 4.41467 1.71003 4.7675L2.14503 7.37C2.17359 7.54618 2.26404 7.70641 2.40014 7.82188C2.53623 7.93736 2.70905 8.00051 2.88753 8H4.50003V15.5C4.50003 16.325 5.17503 17 6.00003 17H12C12.3979 17 12.7794 16.842 13.0607 16.5607C13.342 16.2794 13.5 15.8978 13.5 15.5V8H15.1125C15.291 8.00051 15.4638 7.93736 15.5999 7.82188C15.736 7.70641 15.8265 7.54618 15.855 7.37L16.29 4.7675C16.3495 4.41467 16.2809 4.0522 16.0966 3.74551C15.9123 3.43881 15.6245 3.2081 15.285 3.095Z" stroke="#030712" stroke-width="1.2" stroke-linecap="round" stroke-linejoin="round"/>
</svg>
