<svg width="13" height="12" viewBox="0 0 13 12" fill="none" xmlns="http://www.w3.org/2000/svg">
<path d="M6.66919 0.419984C6.60714 0.291998 6.51794 0.190009 6.40159 0.114017C6.28524 0.0380259 6.15725 3.05176e-05 6.01764 3.05176e-05C5.87802 3.05176e-05 5.74809 0.0380259 5.62787 0.114017C5.50764 0.190009 5.4165 0.291998 5.35444 0.419984L3.90008 3.52764L0.630667 4.01958C0.498804 4.03558 0.378577 4.08958 0.269984 4.18157C0.161392 4.27356 0.0877039 4.38754 0.0489208 4.52353C0.0101377 4.65951 0.00625941 4.7975 0.0372859 4.93748C0.0683123 5.07747 0.134244 5.19545 0.23508 5.29144L2.59697 7.71517L2.03849 11.1228C2.01522 11.2668 2.03074 11.4028 2.08503 11.5307C2.13933 11.6587 2.22077 11.7667 2.32937 11.8547C2.43796 11.9427 2.56206 11.9907 2.70168 11.9987C2.8413 12.0067 2.97316 11.9787 3.09727 11.9147L6.01764 10.3069L8.938 11.9147C9.06211 11.9787 9.19203 12.0067 9.32777 11.9987C9.46351 11.9907 9.58956 11.9447 9.70591 11.8607C9.82226 11.7767 9.90564 11.6687 9.95606 11.5367C10.0065 11.4048 10.02 11.2668 9.99678 11.1228L9.42667 7.71517L11.8002 5.29144C11.901 5.19545 11.967 5.07747 11.998 4.93748C12.029 4.7975 12.0213 4.65951 11.9747 4.52353C11.9282 4.38754 11.8545 4.27356 11.7537 4.18157C11.6528 4.08958 11.5326 4.03558 11.393 4.01958L8.13519 3.52764L6.66919 0.419984Z" fill="#030712"/>
</svg>
