<svg width="15" height="15" viewBox="0 0 15 15" fill="none" xmlns="http://www.w3.org/2000/svg">
<path opacity="0.7" d="M7.77796 0.989945C7.70556 0.840629 7.60149 0.721642 7.46575 0.632985C7.33001 0.544329 7.1807 0.5 7.01781 0.5C6.85492 0.5 6.70334 0.544329 6.56308 0.632985C6.42281 0.721642 6.31648 0.840629 6.24409 0.989945L4.54733 4.61554L0.733011 5.18948C0.579172 5.20814 0.438906 5.27114 0.312215 5.37846C0.185523 5.48578 0.0995542 5.61876 0.0543073 5.77741C0.00906041 5.93606 0.00453572 6.09704 0.0407333 6.26036C0.0769308 6.42368 0.153851 6.56133 0.271493 6.67331L3.02703 9.501L2.37547 13.4766C2.34833 13.6445 2.36642 13.8032 2.42977 13.9525C2.49312 14.1018 2.58813 14.2278 2.71483 14.3305C2.84152 14.4331 2.98631 14.4891 3.1492 14.4984C3.31209 14.5078 3.46592 14.4751 3.61071 14.4005L7.01781 12.5247L10.4249 14.4005C10.5697 14.4751 10.7213 14.5078 10.8796 14.4984C11.038 14.4891 11.185 14.4355 11.3208 14.3375C11.4565 14.2395 11.5538 14.1135 11.6126 13.9595C11.6715 13.8055 11.6873 13.6445 11.6601 13.4766L10.995 9.501L13.7641 6.67331C13.8818 6.56133 13.9587 6.42368 13.9949 6.26036C14.0311 6.09704 14.022 5.93606 13.9677 5.77741C13.9134 5.61876 13.8275 5.48578 13.7098 5.37846C13.5922 5.27114 13.4519 5.20814 13.289 5.18948L9.48829 4.61554L7.77796 0.989945Z" fill="#9CA3AF"/>
</svg>
